. 
 
http://www.torrenting.com          :     Once & For all ;)


               www . Torrenting . Com 

(((((((((((((= Enjoy No RAR releases =))))))))))))))))))))


...................................NFO:....................................

.[align=center]
        [/align]
[size=3][color=#009999]



   The Twilight Saga Breaking Dawn Part 1 2011 720p BRRIP HC XVID AC3 - Xtreme Encode



[/color][/size]


[size=3]
[color=#CC9933]General


Complete name                    : The Twilight Saga Breaking Dawn Part 1 2011 720p BRRIP HC XVID AC3 - Xtreme Encode.avi
Format                           : AVI
Format/Info                      : Audio Video Interleave
Format profile                   : OpenDML
Format settings                  : rec
File size                        : 2.98 GiB
Duration                         : 1h 57mn
Overall bit rate                 : 3 644 Kbps[/color][/size]




[size=3][color=#669900]
Video


ID                               : 0
Format                           : MPEG-4 Visual
Format profile                   : Advanced Simple@L5
Format settings, BVOP            : 2
Format settings, QPel            : No
Format settings, GMC             : No warppoints
Format settings, Matrix          : Default (H.263)
Codec ID                         : XVID
Codec ID/Hint                    : XviD
Duration                         : 1h 57mn
Bit rate                         : 3 191 Kbps
Width                            : 1 280 pixels
Height                           : 528 pixels
Display aspect ratio             : 2.40:1
Frame rate                       : 23.976 fps
Color space                      : YUV
Chroma subsampling               : 4:2:0
Bit depth                        : 8 bits
Scan type                        : Progressive
Compression mode                 : Lossy
Bits/(Pixel*Frame)               : 0.197
Stream size                      : 2.61 GiB (88%)[/color][/size]




[size=3][color=#009900]Audio


ID                               : 1
Format                           : AC-3
Format/Info                      : Audio Coding 3
Mode extension                   : CM (complete main)
Codec ID                         : 2000
Duration                         : 1h 57mn
Bit rate mode                    : Constant
Bit rate                         : 448 Kbps
Channel(s)                       : 6 channels
Channel positions                : Front: L C R, Side: L R, LFE
Sampling rate                    : 48.0 KHz
Bit depth                        : 16 bits
Compression mode                 : Lossy
Stream size                      : 375 MiB (12%)
Alignment                        : Aligned on interleaves
Interleave, duration             : 64 ms (1.53 video frames)
Interleave, preload duration     : 192 ms[/color][/size]





[size=3][color=#6699FF]
SOURCE
Video : 1080p BluRay x264-SECTOR7
Audio : 1080p BluRay x264-SECTOR7



JUST A LITTLE MESS WITH THIS ADDES BIT OF CONTRAS 
RESIZED BIT TWEAKED BIT SHARPEN in 
SAT HUE and few othere things 

SAMPLE: YES

SUBTITLES: HC FOR BITS WERE NEEDED AND ICLUDES FULL SUBTITLES
THANKS TO EXQUiSiTE  FOR THE SUBS WITH OUT THEM I WILL NOT HAVE  :)[/color][/size]



[size=3][color=#0099CC]PLOT

The Quileutes close in on expecting parents Edward and Bella, 
whose unborn child poses a threat to the Wolf Pack and the towns people of Forks. 
 


 [/color][/size]


[size=3][color=#CC6600]Genres: Adventure | Drama | Fantasy 


Director: Bill Condon

Writers: Melissa Rosenberg (screenplay), Stephenie Meyer (novel)

Stars: Kristen Stewart, Robert Pattinson and Taylor Lautner [/color][/size]


[size=3][color=#0033FF]IMDB: http://www.imdb.com/title/tt1324999/[/color][/size]



[size=3][color=#996600]HOPE U ALL LIKE THIS IF SO PLS REP :)[/color][/size]


[size=3][color=#CC0000]
SCREENS:



[/color][/size]


[size=3][b][font=Times New Roman][color=#3366CC]
      GREETS:

IMAGiNE / ELEKTRI4KA / FLAWL3SS  
ViSiON / CRYS / BMB / MiSTERE / 26K
AMB / FYA / Jamie111 / VISUALiSE  
ILLUMINATI / Rx / REFiLL / BHRG
TO MY FRIENDS  AND ALL OTHER GROUPS  :)[/color][/font][/b][/size]